<?xml version="1.0" encoding="utf-8"?>
<svg version="1.1" xmlns:xlink="http://www.w3.org/1999/xlink" width="435px" height="78px" xmlns="http://www.w3.org/2000/svg">
  <g transform="matrix(1 0 0 1 -696 -4732 )">
    <path d="M 697 4736  A 3 3 0 0 1 700 4733 L 1127 4733  A 3 3 0 0 1 1130 4736 L 1130 4806  A 3 3 0 0 1 1127 4809 L 700 4809  A 3 3 0 0 1 697 4806 L 697 4736  Z " fill-rule="nonzero" fill="#f4e2eb" stroke="none" />
    <path d="M 696.5 4736  A 3.5 3.5 0 0 1 700 4732.5 L 1127 4732.5  A 3.5 3.5 0 0 1 1130.5 4736 L 1130.5 4806  A 3.5 3.5 0 0 1 1127 4809.5 L 700 4809.5  A 3.5 3.5 0 0 1 696.5 4806 L 696.5 4736  Z " stroke-width="1" stroke-dasharray="9,4" stroke="#ff3399" fill="none" stroke-dashoffset="0.5" />
  </g>
</svg>