<?xml version="1.0" encoding="utf-8"?>
<svg version="1.1" xmlns:xlink="http://www.w3.org/1999/xlink" width="151px" height="36px" xmlns="http://www.w3.org/2000/svg">
  <defs>
    <mask fill="white" id="clip875">
      <path d="M 0 32  L 0 4  C 0 1.76000000000022  0.134290045477514 0  0.305204648812532 0  L 150.694795351187 0  C 150.865709954522 0  151 1.76000000000022  151 4  L 151 32  C 151 34.2399999999998  150.865709954522 36  150.694795351187 36  L 5.54754332253366 36  L 0.305204648812532 36  C 0.134290045477514 36  0 34.2399999999998  0 32  Z " fill-rule="evenodd" />
    </mask>
  </defs>
  <g transform="matrix(1 0 0 1 -988 -4367 )">
    <path d="M 0 32  L 0 4  C 0 1.76000000000022  0.134290045477514 0  0.305204648812532 0  L 150.694795351187 0  C 150.865709954522 0  151 1.76000000000022  151 4  L 151 32  C 151 34.2399999999998  150.865709954522 36  150.694795351187 36  L 5.54754332253366 36  L 0.305204648812532 36  C 0.134290045477514 36  0 34.2399999999998  0 32  Z " fill-rule="nonzero" fill="#ff3399" stroke="none" fill-opacity="0.0980392156862745" transform="matrix(1 0 0 1 988 4367 )" />
    <path d="M 0 32  L 0 4  C 0 1.76000000000022  0.134290045477514 0  0.305204648812532 0  L 150.694795351187 0  C 150.865709954522 0  151 1.76000000000022  151 4  L 151 32  C 151 34.2399999999998  150.865709954522 36  150.694795351187 36  L 5.54754332253366 36  L 0.305204648812532 36  C 0.134290045477514 36  0 34.2399999999998  0 32  Z " stroke-width="2" stroke-dasharray="9,4" stroke="#ff3399" fill="none" transform="matrix(1 0 0 1 988 4367 )" mask="url(#clip875)" />
  </g>
</svg>