<?xml version="1.0" encoding="utf-8"?>
<svg version="1.1" xmlns:xlink="http://www.w3.org/1999/xlink" width="10px" height="10px" viewBox="308 1167  10 10" xmlns="http://www.w3.org/2000/svg">
  <path d="M 313 1167  C 315.8 1167  318 1169.2  318 1172  C 318 1174.8  315.8 1177  313 1177  C 310.2 1177  308 1174.8  308 1172  C 308 1169.2  310.2 1167  313 1167  Z " fill-rule="nonzero" fill="#ffffff" stroke="none" />
  <path d="M 313 1167.5  C 315.52 1167.5  317.5 1169.48  317.5 1172  C 317.5 1174.52  315.52 1176.5  313 1176.5  C 310.48 1176.5  308.5 1174.52  308.5 1172  C 308.5 1169.48  310.48 1167.5  313 1167.5  Z " stroke-width="1" stroke="#797979" fill="none" />
  <path d="M 313 1174.5  C 311.6 1174.5  310.5 1173.4  310.5 1172  C 310.5 1170.6  311.6 1169.5  313 1169.5  C 314.4 1169.5  315.5 1170.6  315.5 1172  C 315.5 1173.4  314.4 1174.5  313 1174.5  " fill-rule="nonzero" fill="#797979" stroke="none" />
</svg>