<?xml version="1.0" encoding="utf-8"?>
<svg version="1.1" xmlns:xlink="http://www.w3.org/1999/xlink" width="326px" height="256px" xmlns="http://www.w3.org/2000/svg">
  <g transform="matrix(1 0 0 1 -910 -390 )">
    <path d="M 911 394  A 3 3 0 0 1 914 391 L 1232 391  A 3 3 0 0 1 1235 394 L 1235 642  A 3 3 0 0 1 1232 645 L 914 645  A 3 3 0 0 1 911 642 L 911 394  Z " fill-rule="nonzero" fill="#ff3399" stroke="none" fill-opacity="0.0980392156862745" />
    <path d="M 910.5 394  A 3.5 3.5 0 0 1 914 390.5 L 1232 390.5  A 3.5 3.5 0 0 1 1235.5 394 L 1235.5 642  A 3.5 3.5 0 0 1 1232 645.5 L 914 645.5  A 3.5 3.5 0 0 1 910.5 642 L 910.5 394  Z " stroke-width="1" stroke-dasharray="9,4" stroke="#ff3399" fill="none" stroke-dashoffset="0.5" />
  </g>
</svg>