<?xml version="1.0" encoding="utf-8"?>
<svg version="1.1" xmlns:xlink="http://www.w3.org/1999/xlink" width="326px" height="36px" xmlns="http://www.w3.org/2000/svg">
  <g transform="matrix(1 0 0 1 -90 -2032 )">
    <path d="M 91 2036  A 3 3 0 0 1 94 2033 L 412 2033  A 3 3 0 0 1 415 2036 L 415 2064  A 3 3 0 0 1 412 2067 L 94 2067  A 3 3 0 0 1 91 2064 L 91 2036  Z " fill-rule="nonzero" fill="#ff3399" stroke="none" fill-opacity="0.0980392156862745" />
    <path d="M 90.5 2036  A 3.5 3.5 0 0 1 94 2032.5 L 412 2032.5  A 3.5 3.5 0 0 1 415.5 2036 L 415.5 2064  A 3.5 3.5 0 0 1 412 2067.5 L 94 2067.5  A 3.5 3.5 0 0 1 90.5 2064 L 90.5 2036  Z " stroke-width="1" stroke-dasharray="9,4" stroke="#ff3399" fill="none" stroke-dashoffset="0.5" />
  </g>
</svg>