<?xml version="1.0" encoding="utf-8"?>
<svg version="1.1" xmlns:xlink="http://www.w3.org/1999/xlink" width="326px" height="176px" xmlns="http://www.w3.org/2000/svg">
  <g transform="matrix(1 0 0 1 -910 -1531 )">
    <path d="M 911 1535  A 3 3 0 0 1 914 1532 L 1232 1532  A 3 3 0 0 1 1235 1535 L 1235 1703  A 3 3 0 0 1 1232 1706 L 914 1706  A 3 3 0 0 1 911 1703 L 911 1535  Z " fill-rule="nonzero" fill="#ff3399" stroke="none" fill-opacity="0.0980392156862745" />
    <path d="M 910.5 1535  A 3.5 3.5 0 0 1 914 1531.5 L 1232 1531.5  A 3.5 3.5 0 0 1 1235.5 1535 L 1235.5 1703  A 3.5 3.5 0 0 1 1232 1706.5 L 914 1706.5  A 3.5 3.5 0 0 1 910.5 1703 L 910.5 1535  Z " stroke-width="1" stroke-dasharray="9,4" stroke="#ff3399" fill="none" stroke-dashoffset="0.5" />
  </g>
</svg>