<?xml version="1.0" encoding="utf-8"?>
<svg version="1.1" xmlns:xlink="http://www.w3.org/1999/xlink" width="10px" height="10px" viewBox="151 515  10 10" xmlns="http://www.w3.org/2000/svg">
  <path d="M 156 515  C 158.8 515  161 517.2  161 520  C 161 522.8  158.8 525  156 525  C 153.2 525  151 522.8  151 520  C 151 517.2  153.2 515  156 515  Z " fill-rule="nonzero" fill="#ffffff" stroke="none" />
  <path d="M 156 515.5  C 158.52 515.5  160.5 517.48  160.5 520  C 160.5 522.52  158.52 524.5  156 524.5  C 153.48 524.5  151.5 522.52  151.5 520  C 151.5 517.48  153.48 515.5  156 515.5  Z " stroke-width="1" stroke="#797979" fill="none" />
  <path d="M 156 522.5  C 154.6 522.5  153.5 521.4  153.5 520  C 153.5 518.6  154.6 517.5  156 517.5  C 157.4 517.5  158.5 518.6  158.5 520  C 158.5 521.4  157.4 522.5  156 522.5  " fill-rule="nonzero" fill="#797979" stroke="none" />
</svg>