<?xml version="1.0" encoding="utf-8"?>
<svg version="1.1" xmlns:xlink="http://www.w3.org/1999/xlink" width="1979px" height="296px" xmlns="http://www.w3.org/2000/svg">
  <defs>
    <mask fill="white" id="clip182">
      <path d="M 0 263.111111111111  L 0 32.8888888888889  C 0 14.4711111111129  1.76 0  4 0  L 1975 0  C 1977.24 0  1979 14.4711111111129  1979 32.8888888888889  L 1979 263.111111111111  C 1979 281.528888888887  1977.24 296  1975 296  L 72.7058823529412 296  L 4 296  C 1.76 296  0 281.528888888887  0 263.111111111111  Z " fill-rule="evenodd" />
    </mask>
  </defs>
  <g transform="matrix(1 0 0 1 -42 -2170 )">
    <path d="M 0 263.111111111111  L 0 32.8888888888889  C 0 14.4711111111129  1.76 0  4 0  L 1975 0  C 1977.24 0  1979 14.4711111111129  1979 32.8888888888889  L 1979 263.111111111111  C 1979 281.528888888887  1977.24 296  1975 296  L 72.7058823529412 296  L 4 296  C 1.76 296  0 281.528888888887  0 263.111111111111  Z " fill-rule="nonzero" fill="#ff3399" stroke="none" fill-opacity="0.0980392156862745" transform="matrix(1 0 0 1 42 2170 )" />
    <path d="M 0 263.111111111111  L 0 32.8888888888889  C 0 14.4711111111129  1.76 0  4 0  L 1975 0  C 1977.24 0  1979 14.4711111111129  1979 32.8888888888889  L 1979 263.111111111111  C 1979 281.528888888887  1977.24 296  1975 296  L 72.7058823529412 296  L 4 296  C 1.76 296  0 281.528888888887  0 263.111111111111  Z " stroke-width="2" stroke-dasharray="9,4" stroke="#ff3399" fill="none" transform="matrix(1 0 0 1 42 2170 )" mask="url(#clip182)" />
  </g>
</svg>